<svg width="31" height="34" viewBox="0 0 31 34" fill="none" xmlns="http://www.w3.org/2000/svg">
<path d="M15.3559 0.279496L15.2921 0.26123L15.2282 0.279496L0.0555954 4.22092L0.000855768 12.9796C-0.0265152 15.8353 0.603006 18.6545 1.84382 21.2182C2.59196 22.7327 3.47695 24.1743 4.48968 25.5246C7.52785 29.5938 11.3415 32.4495 15.0184 33.7542C15.0366 33.7724 15.0549 33.7724 15.0822 33.7724C15.1005 33.7724 15.1279 33.7724 15.1461 33.7542C18.8412 32.5042 22.6914 29.6941 25.7752 25.6615C26.8061 24.3203 27.7094 22.8879 28.4666 21.3916C29.7439 18.837 30.41 16.0269 30.4191 13.1803L30.4738 4.42161L15.3559 0.279496ZM23.0107 20.3971L15.1826 24.8129L7.43662 20.242L7.52787 11.2643L15.3651 6.85761L23.111 11.4194L23.0198 20.3971H23.0107Z" fill="white"/>
<path d="M8.62376 11.9035L8.55078 19.613L15.2019 23.5362L21.9261 19.7498L21.999 12.0403L15.3479 8.11719L8.62376 11.9035ZM18.7145 20.3338L16.8533 20.352L15.9044 18.7554C15.9318 18.6824 15.95 18.6003 15.95 18.5182C15.95 18.4269 15.9501 18.3266 15.9136 18.2445C15.8862 18.1532 15.8315 18.0711 15.7676 18.0072C15.7037 17.9343 15.6307 17.8795 15.5395 17.843C15.4574 17.8065 15.357 17.7792 15.2658 17.7792C15.1745 17.7792 15.0742 17.7974 14.9921 17.8339C14.9008 17.8704 14.8278 17.9251 14.7549 17.989C14.691 18.0528 14.6363 18.135 14.5998 18.2262C14.5633 18.3174 14.545 18.4087 14.5541 18.4999C14.5541 18.5546 14.5541 18.6002 14.5724 18.655L13.66 20.2882L11.7988 20.3064L10.8499 18.7007L11.7623 17.0858L13.6235 17.0675C13.6235 17.0675 13.6509 17.0949 13.6965 17.1405C13.7695 17.2135 13.8607 17.2773 13.9611 17.3138C14.0615 17.3503 14.1709 17.3686 14.2713 17.3503C14.3808 17.3412 14.4811 17.3047 14.5633 17.25C14.6545 17.1952 14.7275 17.1222 14.7822 17.031C14.837 16.9398 14.8735 16.8394 14.8826 16.739C14.8917 16.6296 14.8826 16.5292 14.8461 16.4288C14.8096 16.3285 14.7549 16.2372 14.6727 16.1643C14.5998 16.0913 14.4994 16.0365 14.399 16.0092C14.3625 15.9909 14.3352 15.9727 14.2987 15.9636L13.4046 14.3395L14.3808 12.752L16.242 12.7885L17.1361 14.4217L16.1599 16.0092H16.1052C16.0139 16.0457 15.9227 16.1004 15.8588 16.1734C15.7858 16.2464 15.7402 16.3285 15.7037 16.4288C15.6672 16.5201 15.6581 16.6204 15.6672 16.7208C15.6763 16.8211 15.7128 16.9124 15.7585 17.0036C15.8132 17.0857 15.8771 17.1679 15.9592 17.2226C16.0413 17.2774 16.1325 17.3139 16.2329 17.3321C16.3333 17.3504 16.4336 17.3412 16.534 17.3138C16.6343 17.2865 16.7165 17.2408 16.7986 17.177V17.1588L18.6598 17.1405L19.6086 18.7371L18.6963 20.352L18.7145 20.3338ZM20.594 11.794L10.1657 11.7302L15.3753 8.81973L20.594 11.8032V11.794Z" fill="white"/>
</svg>
