<svg width="248" height="384" viewBox="0 0 248 384" fill="none" xmlns="http://www.w3.org/2000/svg" xmlns:xlink="http://www.w3.org/1999/xlink">
<path d="M24 0.5H167.75C177.553 0.500001 185.5 8.44695 185.5 18.25C185.5 28.6053 193.895 37 204.25 37H236C242.351 37 247.5 42.1487 247.5 48.5V365C247.5 375.217 239.217 383.5 229 383.5H76.127C68.6603 383.5 61.6383 379.951 57.209 373.94L53.999 369.585C51.643 366.388 47.9081 364.5 43.9365 364.5H24C11.0213 364.5 0.5 353.979 0.5 341V24C0.5 11.0213 11.0213 0.5 24 0.5Z" fill="#2B2B2B"/>
<path d="M24 0.5H167.75C177.553 0.500001 185.5 8.44695 185.5 18.25C185.5 28.6053 193.895 37 204.25 37H236C242.351 37 247.5 42.1487 247.5 48.5V365C247.5 375.217 239.217 383.5 229 383.5H76.127C68.6603 383.5 61.6383 379.951 57.209 373.94L53.999 369.585C51.643 366.388 47.9081 364.5 43.9365 364.5H24C11.0213 364.5 0.5 353.979 0.5 341V24C0.5 11.0213 11.0213 0.5 24 0.5Z" fill="url(#pattern0_2489_9937)" fill-opacity="0.06"/>
<path d="M24 0.5H167.75C177.553 0.500001 185.5 8.44695 185.5 18.25C185.5 28.6053 193.895 37 204.25 37H236C242.351 37 247.5 42.1487 247.5 48.5V365C247.5 375.217 239.217 383.5 229 383.5H76.127C68.6603 383.5 61.6383 379.951 57.209 373.94L53.999 369.585C51.643 366.388 47.9081 364.5 43.9365 364.5H24C11.0213 364.5 0.5 353.979 0.5 341V24C0.5 11.0213 11.0213 0.5 24 0.5Z" stroke="url(#paint0_linear_2489_9937)"/>
<defs>
<linearGradient id="paint0_linear_2489_9937" x1="124" y1="2.83668e-06" x2="259.968" y2="372.763" gradientUnits="userSpaceOnUse">
<stop stop-color="white" stop-opacity="0.4"/>
<stop offset="1" stop-color="#2B2B2B"/>
</linearGradient>
<pattern id="pattern0_2489_9937" patternUnits="userSpaceOnUse" viewBox="46859.8 -1655 147.49 162.19" width="4.1630186049182107%" height="2.9565885031432844%" x="122.44" y="190.285" patternContentUnits="objectBoundingBox">
<path d="M46882.2 -1654.97L46882.1 -1655L46882 -1654.97L46859.8 -1649.21L46859.8 -1636.4C46859.7 -1632.23 46860.6 -1628.11 46862.5 -1624.36C46863.6 -1622.14 46864.8 -1620.03 46866.3 -1618.06C46870.8 -1612.11 46876.3 -1607.93 46881.7 -1606.03C46881.8 -1606 46881.8 -1606 46881.8 -1606C46881.8 -1606 46881.9 -1606 46881.9 -1606.03C46887.3 -1607.85 46892.9 -1611.96 46897.5 -1617.86C46899 -1619.82 46900.3 -1621.92 46901.4 -1624.1C46903.3 -1627.84 46904.2 -1631.95 46904.2 -1636.11L46904.3 -1648.92L46882.2 -1654.97Z" fill="white"/>
</pattern></defs>
</svg>
