<svg width="38" height="60" viewBox="0 0 38 60" fill="none" xmlns="http://www.w3.org/2000/svg">
<path d="M19.4437 25.9485L28.422 26.1364L28.2222 34.5469L19.2438 34.3888L19.0439 42.8291L28.0223 43.0169L28.2222 34.5767L37.2006 34.7645L37.4004 26.3243L28.422 26.1364L28.6219 17.6961L19.6435 17.5082L19.4437 25.9485ZM10.865 8.88003L19.8434 9.06792L19.6435 17.5082L10.6651 17.3203L10.865 8.88003ZM10.865 8.88003L1.88663 8.69215L2.08649 0.251866L11.0649 0.439749L10.865 8.88003ZM9.86569 51.0815L18.8441 51.2693L19.0439 42.8291L10.0656 42.6412L9.86569 51.0815ZM9.86569 51.0815L0.887316 50.8936L0.687454 59.3339L9.66583 59.5217L9.86569 51.0815Z" fill="white"/>
</svg>
