<svg width="411" height="453" viewBox="0 0 411 453" fill="none" xmlns="http://www.w3.org/2000/svg" xmlns:xlink="http://www.w3.org/1999/xlink"><path d="M410.5 1V452H0.5V1H410.5Z" fill="#2B2B2B"/><path d="M410.5 1V452H0.5V1H410.5Z" fill="url(#pattern0_2460_10830)" fill-opacity="0.06"/><path d="M410.5 1V452H0.5V1H410.5Z" stroke="black"/><defs><pattern id="pattern0_2460_10830" patternUnits="userSpaceOnUse" viewBox="47849.8 3830 147.49 162.19" width="2.5119917616051493%" height="2.511792002670401%" x="203.94" y="224.285" patternContentUnits="objectBoundingBox"><path d="M47872.2 3830.03L47872.1 3830L47872 3830.03L47849.8 3835.79L47849.8 3848.6C47849.7 3852.77 47850.6 3856.89 47852.5 3860.64C47853.6 3862.86 47854.8 3864.97 47856.3 3866.94C47860.8 3872.89 47866.3 3877.07 47871.7 3878.97C47871.8 3879 47871.8 3879 47871.8 3879C47871.8 3879 47871.9 3879 47871.9 3878.97C47877.3 3877.15 47882.9 3873.04 47887.5 3867.14C47889 3865.18 47890.3 3863.08 47891.4 3860.9C47893.3 3857.16 47894.2 3853.05 47894.2 3848.89L47894.3 3836.08L47872.2 3830.03Z" fill="white"/></pattern></defs></svg>