<svg width="196" height="196" viewBox="0 0 196 196" fill="none" xmlns="http://www.w3.org/2000/svg"><path d="M0 7.64877C0 3.42447 3.42448 0 7.64878 0H188.351C192.576 0 196 3.42448 196 7.64878V188.351C196 192.576 192.576 196 188.351 196H7.64877C3.42447 196 0 192.576 0 188.351V7.64877Z" fill="white"/><path d="M11.3691 11.3691H53.191V17.3437H11.3691V11.3691ZM83.0638 11.3691H89.0384V17.3437H83.0638V11.3691ZM95.013 11.3691H106.962V17.3437H95.013V11.3691ZM142.809 11.3691H184.631V17.3437H142.809V11.3691ZM11.3691 17.3437H17.3437V23.3183H11.3691V17.3437ZM47.2165 17.3437H53.191V23.3183H47.2165V17.3437ZM83.0638 17.3437H95.013V23.3183H83.0638V17.3437ZM124.886 17.3437H130.86V23.3183H124.886V17.3437ZM142.809 17.3437H148.784V23.3183H142.809V17.3437ZM178.657 17.3437H184.631V23.3183H178.657V17.3437ZM11.3691 23.3183H17.3437V29.2928H11.3691V23.3183ZM23.3183 23.3183H41.2419V29.2928H23.3183V23.3183ZM47.2165 23.3183H53.191V29.2928H47.2165V23.3183ZM59.1656 23.3183H71.1147V29.2928H59.1656V23.3183ZM83.0638 23.3183H89.0384V29.2928H83.0638V23.3183ZM106.962 23.3183H118.911V29.2928H106.962V23.3183ZM124.886 23.3183H130.86V29.2928H124.886V23.3183ZM142.809 23.3183H148.784V29.2928H142.809V23.3183ZM154.759 23.3183H172.682V29.2928H154.759V23.3183ZM178.657 23.3183H184.631V29.2928H178.657V23.3183ZM11.3691 29.2928H17.3437V35.2674H11.3691V29.2928ZM23.3183 29.2928H41.2419V35.2674H23.3183V29.2928ZM47.2165 29.2928H53.191V35.2674H47.2165V29.2928ZM65.1402 29.2928H112.937V35.2674H65.1402V29.2928ZM118.911 29.2928H124.886V35.2674H118.911V29.2928ZM142.809 29.2928H148.784V35.2674H142.809V29.2928ZM154.759 29.2928H172.682V35.2674H154.759V29.2928ZM178.657 29.2928H184.631V35.2674H178.657V29.2928ZM11.3691 35.2674H17.3437V41.2419H11.3691V35.2674ZM23.3183 35.2674H41.2419V41.2419H23.3183V35.2674ZM47.2165 35.2674H53.191V41.2419H47.2165V35.2674ZM59.1656 35.2674H71.1147V41.2419H59.1656V35.2674ZM83.0638 35.2674H95.013V41.2419H83.0638V35.2674ZM106.962 35.2674H112.937V41.2419H106.962V35.2674ZM118.911 35.2674H124.886V41.2419H118.911V35.2674ZM142.809 35.2674H148.784V41.2419H142.809V35.2674ZM154.759 35.2674H172.682V41.2419H154.759V35.2674ZM178.657 35.2674H184.631V41.2419H178.657V35.2674ZM11.3691 41.2419H17.3437V47.2165H11.3691V41.2419ZM47.2165 41.2419H53.191V47.2165H47.2165V41.2419ZM59.1656 41.2419H65.1402V47.2165H59.1656V41.2419ZM77.0893 41.2419H112.937V47.2165H77.0893V41.2419ZM118.911 41.2419H130.86V47.2165H118.911V41.2419ZM142.809 41.2419H148.784V47.2165H142.809V41.2419ZM178.657 41.2419H184.631V47.2165H178.657V41.2419ZM11.3691 47.2165H53.191V53.191H11.3691V47.2165ZM59.1656 47.2165H65.1402V53.191H59.1656V47.2165ZM71.1147 47.2165H77.0893V53.191H71.1147V47.2165ZM83.0638 47.2165H89.0384V53.191H83.0638V47.2165ZM95.013 47.2165H100.988V53.191H95.013V47.2165ZM106.962 47.2165H112.937V53.191H106.962V47.2165ZM118.911 47.2165H124.886V53.191H118.911V47.2165ZM130.86 47.2165H136.835V53.191H130.86V47.2165ZM142.809 47.2165H184.631V53.191H142.809V47.2165ZM71.1147 53.191H83.0638V59.1656H71.1147V53.191ZM100.988 53.191H118.911V59.1656H100.988V53.191ZM124.886 53.191H130.86V59.1656H124.886V53.191ZM17.3437 59.1656H23.3183V65.1402H17.3437V59.1656ZM35.2674 59.1656H41.2419V65.1402H35.2674V59.1656ZM47.2165 59.1656H53.191V65.1402H47.2165V59.1656ZM59.1656 59.1656H71.1147V65.1402H59.1656V59.1656ZM77.0893 59.1656H83.0638V65.1402H77.0893V59.1656ZM89.0384 59.1656H100.988V65.1402H89.0384V59.1656ZM112.937 59.1656H118.911V65.1402H112.937V59.1656ZM124.886 59.1656H130.86V65.1402H124.886V59.1656ZM136.835 59.1656H142.809V65.1402H136.835V59.1656ZM148.784 59.1656H160.733V65.1402H148.784V59.1656ZM166.708 59.1656H172.682V65.1402H166.708V59.1656ZM11.3691 65.1402H23.3183V71.1147H11.3691V65.1402ZM35.2674 65.1402H41.2419V71.1147H35.2674V65.1402ZM53.191 65.1402H65.1402V71.1147H53.191V65.1402ZM71.1147 65.1402H77.0893V71.1147H71.1147V65.1402ZM95.013 65.1402H100.988V71.1147H95.013V65.1402ZM112.937 65.1402H118.911V71.1147H112.937V65.1402ZM142.809 65.1402H184.631V71.1147H142.809V65.1402ZM23.3183 71.1147H29.2928V77.0893H23.3183V71.1147ZM35.2674 71.1147H41.2419V77.0893H35.2674V71.1147ZM47.2165 71.1147H53.191V77.0893H47.2165V71.1147ZM59.1656 71.1147H65.1402V77.0893H59.1656V71.1147ZM77.0893 71.1147H89.0384V77.0893H77.0893V71.1147ZM100.988 71.1147H118.911V77.0893H100.988V71.1147ZM136.835 71.1147H142.809V77.0893H136.835V71.1147ZM178.657 71.1147H184.631V77.0893H178.657V71.1147ZM53.191 77.0893H59.1656V83.0638H53.191V77.0893ZM77.0893 77.0893H89.0384V83.0638H77.0893V77.0893ZM95.013 77.0893H118.911V83.0638H95.013V77.0893ZM124.886 77.0893H130.86V83.0638H124.886V77.0893ZM136.835 77.0893H142.809V83.0638H136.835V77.0893ZM148.784 77.0893H166.708V83.0638H148.784V77.0893ZM172.682 77.0893H184.631V83.0638H172.682V77.0893ZM17.3437 83.0638H23.3183V89.0384H17.3437V83.0638ZM35.2674 83.0638H53.191V89.0384H35.2674V83.0638ZM59.1656 83.0638H77.0893V89.0384H59.1656V83.0638ZM95.013 83.0638H100.988V89.0384H95.013V83.0638ZM106.962 83.0638H118.911V89.0384H106.962V83.0638ZM124.886 83.0638H130.86V89.0384H124.886V83.0638ZM148.784 83.0638H154.759V89.0384H148.784V83.0638ZM178.657 83.0638H184.631V89.0384H178.657V83.0638ZM11.3691 89.0384H17.3437V95.013H11.3691V89.0384ZM29.2928 89.0384H47.2165V95.013H29.2928V89.0384ZM53.191 89.0384H95.013V95.013H53.191V89.0384ZM106.962 89.0384H112.937V95.013H106.962V89.0384ZM118.911 89.0384H124.886V95.013H118.911V89.0384ZM142.809 89.0384H148.784V95.013H142.809V89.0384ZM154.759 89.0384H160.733V95.013H154.759V89.0384ZM166.708 89.0384H184.631V95.013H166.708V89.0384ZM17.3437 95.013H23.3183V100.988H17.3437V95.013ZM29.2928 95.013H53.191V100.988H29.2928V95.013ZM65.1402 95.013H77.0893V100.988H65.1402V95.013ZM89.0384 95.013H95.013V100.988H89.0384V95.013ZM100.988 95.013H106.962V100.988H100.988V95.013ZM118.911 95.013H124.886V100.988H118.911V95.013ZM130.86 95.013H136.835V100.988H130.86V95.013ZM154.759 95.013H160.733V100.988H154.759V95.013ZM178.657 95.013H184.631V100.988H178.657V95.013ZM29.2928 100.988H35.2674V106.962H29.2928V100.988ZM41.2419 100.988H47.2165V106.962H41.2419V100.988ZM59.1656 100.988H71.1147V106.962H59.1656V100.988ZM112.937 100.988H118.911V106.962H112.937V100.988ZM130.86 100.988H142.809V106.962H130.86V100.988ZM148.784 100.988H154.759V106.962H148.784V100.988ZM160.733 100.988H166.708V106.962H160.733V100.988ZM178.657 100.988H184.631V106.962H178.657V100.988ZM29.2928 106.962H35.2674V112.937H29.2928V106.962ZM47.2165 106.962H65.1402V112.937H47.2165V106.962ZM71.1147 106.962H106.962V112.937H71.1147V106.962ZM118.911 106.962H124.886V112.937H118.911V106.962ZM136.835 106.962H142.809V112.937H136.835V106.962ZM11.3691 112.937H23.3183V118.911H11.3691V112.937ZM29.2928 112.937H35.2674V118.911H29.2928V112.937ZM71.1147 112.937H83.0638V118.911H71.1147V112.937ZM89.0384 112.937H95.013V118.911H89.0384V112.937ZM106.962 112.937H124.886V118.911H106.962V112.937ZM142.809 112.937H172.682V118.911H142.809V112.937ZM178.657 112.937H184.631V118.911H178.657V112.937ZM29.2928 118.911H53.191V124.886H29.2928V118.911ZM59.1656 118.911H83.0638V124.886H59.1656V118.911ZM89.0384 118.911H95.013V124.886H89.0384V118.911ZM106.962 118.911H112.937V124.886H106.962V118.911ZM118.911 118.911H124.886V124.886H118.911V118.911ZM130.86 118.911H136.835V124.886H130.86V118.911ZM148.784 118.911H154.759V124.886H148.784V118.911ZM178.657 118.911H184.631V124.886H178.657V118.911ZM29.2928 124.886H41.2419V130.86H29.2928V124.886ZM53.191 124.886H59.1656V130.86H53.191V124.886ZM83.0638 124.886H100.988V130.86H83.0638V124.886ZM112.937 124.886H136.835V130.86H112.937V124.886ZM154.759 124.886H160.733V130.86H154.759V124.886ZM178.657 124.886H184.631V130.86H178.657V124.886ZM11.3691 130.86H23.3183V136.835H11.3691V130.86ZM41.2419 130.86H53.191V136.835H41.2419V130.86ZM59.1656 130.86H65.1402V136.835H59.1656V130.86ZM77.0893 130.86H89.0384V136.835H77.0893V130.86ZM100.988 130.86H106.962V136.835H100.988V130.86ZM112.937 130.86H118.911V136.835H112.937V130.86ZM130.86 130.86H166.708V136.835H130.86V130.86ZM172.682 130.86H184.631V136.835H172.682V130.86ZM59.1656 136.835H71.1147V142.809H59.1656V136.835ZM77.0893 136.835H83.0638V142.809H77.0893V136.835ZM89.0384 136.835H95.013V142.809H89.0384V136.835ZM100.988 136.835H106.962V142.809H100.988V136.835ZM112.937 136.835H136.835V142.809H112.937V136.835ZM154.759 136.835H160.733V142.809H154.759V136.835ZM166.708 136.835H172.682V142.809H166.708V136.835ZM178.657 136.835H184.631V142.809H178.657V136.835ZM11.3691 142.809H53.191V148.784H11.3691V142.809ZM71.1147 142.809H83.0638V148.784H71.1147V142.809ZM95.013 142.809H106.962V148.784H95.013V142.809ZM118.911 142.809H136.835V148.784H118.911V142.809ZM142.809 142.809H148.784V148.784H142.809V142.809ZM154.759 142.809H160.733V148.784H154.759V142.809ZM178.657 142.809H184.631V148.784H178.657V142.809ZM11.3691 148.784H17.3437V154.759H11.3691V148.784ZM47.2165 148.784H53.191V154.759H47.2165V148.784ZM65.1402 148.784H71.1147V154.759H65.1402V148.784ZM100.988 148.784H112.937V154.759H100.988V148.784ZM124.886 148.784H136.835V154.759H124.886V148.784ZM154.759 148.784H166.708V154.759H154.759V148.784ZM172.682 148.784H178.657V154.759H172.682V148.784ZM11.3691 154.759H17.3437V160.733H11.3691V154.759ZM23.3183 154.759H41.2419V160.733H23.3183V154.759ZM47.2165 154.759H53.191V160.733H47.2165V154.759ZM59.1656 154.759H65.1402V160.733H59.1656V154.759ZM71.1147 154.759H77.0893V160.733H71.1147V154.759ZM95.013 154.759H112.937V160.733H95.013V154.759ZM124.886 154.759H160.733V160.733H124.886V154.759ZM172.682 154.759H184.631V160.733H172.682V154.759ZM11.3691 160.733H17.3437V166.708H11.3691V160.733ZM23.3183 160.733H41.2419V166.708H23.3183V160.733ZM47.2165 160.733H53.191V166.708H47.2165V160.733ZM65.1402 160.733H71.1147V166.708H65.1402V160.733ZM77.0893 160.733H95.013V166.708H77.0893V160.733ZM112.937 160.733H124.886V166.708H112.937V160.733ZM148.784 160.733H154.759V166.708H148.784V160.733ZM172.682 160.733H178.657V166.708H172.682V160.733ZM11.3691 166.708H17.3437V172.682H11.3691V166.708ZM23.3183 166.708H41.2419V172.682H23.3183V166.708ZM47.2165 166.708H53.191V172.682H47.2165V166.708ZM65.1402 166.708H71.1147V172.682H65.1402V166.708ZM100.988 166.708H106.962V172.682H100.988V166.708ZM118.911 166.708H142.809V172.682H118.911V166.708ZM166.708 166.708H184.631V172.682H166.708V166.708ZM11.3691 172.682H17.3437V178.657H11.3691V172.682ZM47.2165 172.682H53.191V178.657H47.2165V172.682ZM59.1656 172.682H65.1402V178.657H59.1656V172.682ZM100.988 172.682H118.911V178.657H100.988V172.682ZM130.86 172.682H142.809V178.657H130.86V172.682ZM148.784 172.682H154.759V178.657H148.784V172.682ZM160.733 172.682H166.708V178.657H160.733V172.682ZM172.682 172.682H184.631V178.657H172.682V172.682ZM11.3691 178.657H53.191V184.631H11.3691V178.657ZM71.1147 178.657H77.0893V184.631H71.1147V178.657ZM83.0638 178.657H89.0384V184.631H83.0638V178.657ZM95.013 178.657H100.988V184.631H95.013V178.657ZM112.937 178.657H118.911V184.631H112.937V178.657ZM124.886 178.657H148.784V184.631H124.886V178.657ZM154.759 178.657H166.708V184.631H154.759V178.657ZM172.682 178.657H178.657V184.631H172.682V178.657Z" fill="black"/></svg>