<svg width="38" height="38" viewBox="0 0 38 38" fill="none" xmlns="http://www.w3.org/2000/svg"><path d="M19 0C8.50661 0 0 8.50659 0 19C0 29.4934 8.50661 38 19 38C29.4933 38 37.9999 29.4934 37.9999 18.9999C37.9999 8.50661 29.4933 3.35688e-05 19 0ZM21.0525 29.0482C20.151 29.1507 19.2435 29.1912 18.3366 29.1697L12.0139 29.1697V7.88654H14.9819V23.94C15.6291 24.2211 16.3096 24.4189 17.0068 24.5287C17.8054 24.6797 18.6167 24.7579 19.4299 24.7623C21.3484 24.7623 22.8778 24.2234 24.0178 23.1457C25.1578 22.068 25.7298 20.6207 25.7341 18.8038C25.7341 17.1093 25.2545 15.7222 24.2952 14.6425C23.3685 13.5742 22.0112 12.9785 20.5978 13.0197C19.4275 13.0238 18.2872 13.3929 17.3365 14.0756V7.88654H18.4924C19.3982 7.8645 20.3048 7.90614 21.205 8.01115C26.1421 8.6341 29.6152 11.9295 29.6152 18.2898C29.6276 24.5474 25.9863 28.4315 21.0525 29.0513V29.0482Z" fill="white"/></svg>