<svg width="1272" height="829" viewBox="0 0 1272 829" fill="none" xmlns="http://www.w3.org/2000/svg"><mask id="mask0_405_618" style="mask-type:alpha" maskUnits="userSpaceOnUse" x="0" y="0" width="1272" height="829"><path d="M0 743.004C0 767.975 20.2427 788.218 45.2133 788.218H243.427C258.483 788.218 272.55 795.711 280.95 808.206L281.431 808.922C289.831 821.416 303.898 828.91 318.954 828.91H941.744C956.799 828.91 970.867 821.416 979.267 808.922L979.748 808.206C988.147 795.711 1002.22 788.218 1017.27 788.218H1226.79C1251.76 788.218 1272 767.975 1272 743.004V45.2133C1272 20.2427 1251.76 0 1226.79 0H624.152C609.096 0 595.029 7.49378 586.629 19.9881L580.11 29.6849C571.711 42.1792 557.643 49.673 542.588 49.673H45.2133C20.2427 49.673 0 69.9157 0 94.8863V743.004Z" fill="#868686"/></mask><g mask="url(#mask0_405_618)"><rect width="1272" height="829" fill="#4A4A4A" fill-opacity="0.22"/></g></svg>