<svg width="199" height="53" viewBox="0 0 199 53" fill="none" xmlns="http://www.w3.org/2000/svg"><path d="M23.5903 0.854201L23.4922 0.826141L23.3941 0.854201L0.0854075 6.90914L0.00131466 20.3645C-0.0407335 24.7515 0.926358 29.0824 2.83254 33.0209C3.98185 35.3476 5.3414 37.5622 6.89718 39.6366C11.5645 45.8877 17.4232 50.2748 23.0717 52.2791C23.0997 52.3071 23.1278 52.307 23.1698 52.307C23.1979 52.307 23.2399 52.3071 23.268 52.2791C28.9444 50.3589 34.8592 46.0419 39.5966 39.8468C41.1804 37.7865 42.568 35.5859 43.7313 33.2873C45.6936 29.3628 46.7168 25.0458 46.7308 20.6728L46.8149 7.21745L23.5903 0.854201ZM35.3498 31.7596L23.324 38.5433L11.4244 31.5213L11.5645 17.7295L23.6043 10.9597L35.5039 17.9677L35.3638 31.7596H35.3498Z" fill="white"/><path d="M13.2488 18.7114L13.1367 30.555L23.3544 36.5819L33.6842 30.7652L33.7963 18.9216L23.5787 12.8947L13.2488 18.7114ZM28.7506 31.6622L25.8913 31.6903L24.4336 29.2375C24.4757 29.1254 24.5037 28.9992 24.5037 28.8731C24.5037 28.7329 24.5037 28.5787 24.4477 28.4526C24.4056 28.3124 24.3215 28.1863 24.2234 28.0882C24.1253 27.976 24.0132 27.892 23.873 27.8359C23.7469 27.7798 23.5927 27.7378 23.4525 27.7378C23.3123 27.7378 23.1582 27.7658 23.032 27.8219C22.8919 27.8779 22.7797 27.962 22.6676 28.0601C22.5695 28.1582 22.4854 28.2844 22.4294 28.4245C22.3733 28.5647 22.3452 28.7048 22.3593 28.845C22.3593 28.9291 22.3593 28.9992 22.3873 29.0833L20.9857 31.5922L18.1264 31.6202L16.6687 29.1534L18.0703 26.6725L20.9296 26.6445C20.9296 26.6445 20.9717 26.6866 21.0417 26.7566C21.1539 26.8688 21.294 26.9669 21.4482 27.0229C21.6024 27.079 21.7706 27.107 21.9248 27.079C22.093 27.065 22.2471 27.0089 22.3733 26.9248C22.5134 26.8407 22.6256 26.7286 22.7097 26.5884C22.7938 26.4483 22.8498 26.2941 22.8639 26.1399C22.8779 25.9717 22.8638 25.8175 22.8078 25.6633C22.7517 25.5092 22.6676 25.369 22.5415 25.2569C22.4293 25.1448 22.2752 25.0607 22.121 25.0187C22.0649 24.9906 22.0229 24.9626 21.9668 24.9486L20.5933 22.4537L22.0929 20.0149L24.9522 20.071L26.3258 22.5799L24.8261 25.0187H24.742C24.6018 25.0747 24.4617 25.1588 24.3636 25.2709C24.2515 25.3831 24.1814 25.5092 24.1253 25.6633C24.0692 25.8035 24.0552 25.9577 24.0692 26.1119C24.0832 26.266 24.1393 26.4062 24.2094 26.5464C24.2935 26.6725 24.3916 26.7987 24.5177 26.8828C24.6439 26.9669 24.7841 27.023 24.9382 27.051C25.0924 27.079 25.2466 27.065 25.4008 27.0229C25.5549 26.9809 25.6811 26.9108 25.8072 26.8127V26.7847L28.6665 26.7566L30.1242 29.2094L28.7225 31.6903L28.7506 31.6622ZM31.6379 18.5433L15.6175 18.4451L23.6207 13.974L31.6379 18.5573V18.5433Z" fill="white"/><path d="M62.6212 20.154H56.1738V17.0705H72.6567V20.154H66.2233V36.693H62.6212V20.154Z" fill="white"/><path d="M87.4027 30.3296H75.7834C75.9656 31.3668 76.5403 32.2919 77.3812 32.9086C78.3203 33.5814 79.4416 33.9178 80.5769 33.8757C81.3197 33.9037 82.0626 33.7635 82.7634 33.4832C83.4502 33.2029 84.0809 32.7824 84.6135 32.2498L86.4636 34.4083C85.7909 35.2213 84.9218 35.852 83.9407 36.2304C82.6933 36.6929 81.3618 36.9032 80.0303 36.8331C78.6987 36.777 77.3952 36.4406 76.1898 35.866C74.9985 35.2493 73.9893 34.3102 73.3166 33.1328C72.6298 31.9274 72.2794 30.5538 72.2934 29.1663C72.2794 27.7927 72.6158 26.4331 73.2745 25.2278C73.9193 24.0784 74.8583 23.1254 76.0076 22.4947C77.213 21.8359 78.5726 21.4855 79.9462 21.5136C81.3057 21.4855 82.6372 21.8219 83.8286 22.4807C84.9499 23.1114 85.8749 24.0505 86.4916 25.1998C87.1504 26.4472 87.4868 27.8348 87.4447 29.2504C87.4728 29.5308 87.4448 29.8671 87.3887 30.3296H87.4027ZM77.157 25.3539C76.3861 26.0267 75.8815 26.9798 75.7554 28.003H84.165C84.0528 26.9798 83.5623 26.0407 82.8054 25.368C82.0065 24.7232 81.0114 24.3588 79.9742 24.3588C78.937 24.3588 77.9559 24.7092 77.143 25.368L77.157 25.3539Z" fill="white"/><path d="M93.4465 35.9089C92.2551 35.2782 91.274 34.3391 90.5872 33.1758C89.8864 31.9704 89.536 30.5968 89.5641 29.2092C89.536 27.8216 89.9005 26.462 90.5872 25.2567C91.26 24.0933 92.2552 23.1543 93.4325 22.5376C94.708 21.8648 96.1376 21.5284 97.5812 21.5564C98.9128 21.5284 100.23 21.8368 101.422 22.4535C102.501 23.0281 103.37 23.9392 103.916 25.0324L101.253 26.6022C100.861 25.9435 100.314 25.4109 99.6416 25.0324C98.9969 24.682 98.268 24.4998 97.5392 24.5139C96.9505 24.5139 96.3618 24.6119 95.8152 24.8362C95.2686 25.0605 94.764 25.3969 94.3435 25.8173C93.5306 26.7564 93.0821 27.9758 93.0821 29.2232C93.0821 30.4707 93.5306 31.69 94.3435 32.6291C95.0443 33.2879 95.9273 33.7083 96.8804 33.8345C97.8335 33.9606 98.7866 33.8064 99.6416 33.3719C100.3 33.0075 100.847 32.4749 101.239 31.8162L103.902 33.386C103.342 34.4932 102.473 35.3903 101.394 35.9649C100.216 36.5957 98.8847 36.918 97.5532 36.8759C96.1236 36.8899 94.7219 36.5536 93.4465 35.8949V35.9089Z" fill="white"/><path d="M119.671 23.2106C120.82 24.3179 121.394 25.9578 121.394 28.1162V36.6941H117.933V28.5648C118.003 27.4995 117.666 26.4484 116.993 25.6214C116.657 25.271 116.237 25.0047 115.788 24.8365C115.34 24.6683 114.849 24.5842 114.372 24.6262C113.812 24.5982 113.265 24.6823 112.733 24.8785C112.214 25.0748 111.737 25.3831 111.345 25.7896C110.546 26.7147 110.154 27.9201 110.238 29.1395V36.7081H106.762V15.9364H110.238V23.4769C110.826 22.8462 111.555 22.3697 112.354 22.0614C113.251 21.725 114.218 21.5567 115.171 21.5708C115.998 21.5287 116.811 21.6549 117.596 21.9352C118.367 22.2155 119.082 22.664 119.685 23.2246L119.671 23.2106Z" fill="white"/><path d="M142.43 28.2693C143.075 29.1664 143.411 30.2596 143.369 31.3668C143.411 32.1377 143.243 32.8946 142.906 33.5814C142.57 34.2682 142.065 34.8568 141.449 35.3053C140.173 36.2304 138.253 36.693 135.786 36.693H126.115V17.0705H135.212C137.51 17.0705 139.276 17.519 140.51 18.43C141.098 18.8505 141.589 19.4111 141.911 20.0699C142.234 20.7286 142.388 21.4435 142.374 22.1723C142.402 23.0833 142.178 23.9664 141.729 24.7513C141.295 25.4941 140.664 26.0968 139.893 26.4893C140.902 26.8116 141.785 27.4284 142.416 28.2693H142.43ZM129.703 19.9298V25.3399H134.819C135.828 25.396 136.838 25.1577 137.721 24.6532C138.029 24.4149 138.295 24.1205 138.463 23.7701C138.646 23.4197 138.73 23.0273 138.73 22.6349C138.73 22.2424 138.632 21.85 138.463 21.4996C138.281 21.1492 138.029 20.8408 137.721 20.6165C136.838 20.0979 135.828 19.8597 134.819 19.9298H129.703ZM139.725 31.0025C139.725 29.1103 138.323 28.1712 135.534 28.1712H129.703V33.8337H135.534C138.337 33.8337 139.739 32.8946 139.725 31.0025Z" fill="white"/><path d="M157.572 23.14C158.722 24.1912 159.31 25.7891 159.31 27.9195V36.6936H156.031V34.8714C155.582 35.5442 154.951 36.0628 154.209 36.3712C152.358 37.086 150.298 37.072 148.448 36.3151C147.677 35.9788 147.004 35.4181 146.528 34.7173C146.065 34.0305 145.827 33.2316 145.841 32.4047C145.827 31.788 145.939 31.1712 146.205 30.6106C146.458 30.05 146.85 29.5594 147.327 29.1669C148.322 28.354 149.878 27.9475 152.008 27.9475H155.848V27.7233C155.877 27.2748 155.806 26.8263 155.652 26.4198C155.498 25.9993 155.246 25.6209 154.923 25.3125C154.139 24.6958 153.157 24.4015 152.162 24.4716C151.321 24.4716 150.494 24.5978 149.709 24.8641C148.953 25.0883 148.252 25.4527 147.635 25.9432L146.276 23.3643C147.116 22.7336 148.07 22.271 149.079 21.9907C150.2 21.6683 151.377 21.5002 152.541 21.5142C154.741 21.5422 156.409 22.0748 157.572 23.126V23.14ZM154.377 33.7362C155.036 33.3437 155.54 32.741 155.806 32.0122V30.2742H152.218C150.228 30.2742 149.219 30.933 149.219 32.2645C149.219 32.5588 149.275 32.8531 149.401 33.1194C149.527 33.3857 149.723 33.6101 149.962 33.7782C150.578 34.1847 151.307 34.3809 152.036 34.3388C152.863 34.3669 153.676 34.1566 154.377 33.7362Z" fill="white"/><path d="M176.648 23.2093C177.77 24.3165 178.344 25.9564 178.344 28.1149V36.6928H174.882V28.5634C174.966 27.4982 174.63 26.447 173.971 25.6201C173.635 25.2697 173.228 25.0034 172.766 24.8352C172.317 24.667 171.841 24.5969 171.35 24.6249C170.79 24.5969 170.243 24.6809 169.724 24.8772C169.206 25.0734 168.729 25.3818 168.337 25.7882C167.538 26.7133 167.145 27.9187 167.23 29.1381V36.7067H163.768V21.7376H167.075V23.6718C167.664 22.971 168.407 22.4384 169.234 22.102C170.173 21.7376 171.168 21.5554 172.177 21.5694C172.99 21.5274 173.817 21.6535 174.588 21.9338C175.359 22.2142 176.074 22.6486 176.676 23.2093H176.648Z" fill="white"/><path d="M188.813 30.2745L186.248 32.7413V36.6939H182.758V15.9221H186.22V28.4524L193.41 21.7387H197.573L191.392 28.0179L198.175 36.6939H193.957L188.813 30.2745Z" fill="white"/></svg>