<svg width="21" height="20" viewBox="0 0 21 20" fill="none" xmlns="http://www.w3.org/2000/svg">
<path d="M15.0603 5.53212L0.316406 17.4772L1.94153 19.5731L16.6913 7.63533L18.3224 9.73854L20.4344 8.11435L18.8034 6.01114L20.9155 4.38694L19.2844 2.28373L0.316406 17.4772L17.2519 3.91181L15.5413 1.80471L13.4293 3.42891L15.0603 5.53212ZM9.68616 2.94989L11.7982 1.3257L13.4293 3.42891L11.3172 5.0531L9.68616 2.94989ZM9.68616 2.94989L7.57409 4.57408L5.94306 2.47087L8.05512 0.84668L9.68616 2.94989ZM17.8413 13.4659L19.9534 11.8418L18.3224 9.73854L16.2103 11.3627L17.8413 13.4659ZM17.8413 13.4659L15.7293 15.0901L17.3603 17.1933L19.4724 15.5692L17.8413 13.4659Z" fill="white"/>
</svg>
