<svg width="587" height="458" viewBox="0 0 587 458" fill="none" xmlns="http://www.w3.org/2000/svg">
<mask id="path-1-inside-1_2454_9917" fill="white">
<path d="M433.666 29.8345C438.917 37.3803 447.529 41.8789 456.722 41.8789H558.047C573.561 41.8789 586.137 54.4551 586.137 69.9685V369.677C586.137 377.126 583.177 384.271 577.91 389.539L517.815 449.634C512.547 454.902 505.403 457.861 497.953 457.861H28.0896C12.5762 457.861 0 445.285 0 429.772V83.8529C0 76.403 2.95943 69.2583 8.22726 63.9905L63.9905 8.22726C69.2583 2.95943 76.403 0 83.8529 0H398.229C407.423 0 416.034 4.4986 421.285 12.0444L433.666 29.8345Z"/>
</mask>
<path d="M433.666 29.8345C438.917 37.3803 447.529 41.8789 456.722 41.8789H558.047C573.561 41.8789 586.137 54.4551 586.137 69.9685V369.677C586.137 377.126 583.177 384.271 577.91 389.539L517.815 449.634C512.547 454.902 505.403 457.861 497.953 457.861H28.0896C12.5762 457.861 0 445.285 0 429.772V83.8529C0 76.403 2.95943 69.2583 8.22726 63.9905L63.9905 8.22726C69.2583 2.95943 76.403 0 83.8529 0H398.229C407.423 0 416.034 4.4986 421.285 12.0444L433.666 29.8345Z" fill="black"/>
<path d="M421.285 12.0444L420.517 12.5793L421.285 12.0444ZM63.9905 8.22726L63.3284 7.56518L63.9905 8.22726ZM517.815 449.634L517.153 448.972L517.815 449.634ZM577.91 389.539L577.248 388.877L577.91 389.539ZM433.666 29.8345L434.434 29.2996L433.666 29.8345ZM456.722 41.8789V42.8152H558.047V41.8789V40.9426H456.722V41.8789ZM586.137 69.9685H585.2V369.677H586.137H587.073V69.9685H586.137ZM577.91 389.539L577.248 388.877L517.153 448.972L517.815 449.634L518.477 450.296L578.572 390.201L577.91 389.539ZM497.953 457.861V456.925H28.0896V457.861V458.798H497.953V457.861ZM0 429.772H0.936321V83.8529H0H-0.936321V429.772H0ZM8.22726 63.9905L8.88934 64.6526L64.6526 8.88934L63.9905 8.22726L63.3284 7.56518L7.56518 63.3284L8.22726 63.9905ZM83.8529 0V0.936321H398.229V0V-0.936321H83.8529V0ZM421.285 12.0444L420.517 12.5793L432.897 30.3693L433.666 29.8345L434.434 29.2996L422.054 11.5096L421.285 12.0444ZM398.229 0V0.936321C407.116 0.936321 415.441 5.28497 420.517 12.5793L421.285 12.0444L422.054 11.5096C416.627 3.71223 407.729 -0.936321 398.229 -0.936321V0ZM63.9905 8.22726L64.6526 8.88934C69.7448 3.7971 76.6514 0.936321 83.8529 0.936321V0V-0.936321C76.1547 -0.936321 68.7719 2.12176 63.3284 7.56518L63.9905 8.22726ZM0 83.8529H0.936321C0.936321 76.6514 3.79711 69.7448 8.88934 64.6526L8.22726 63.9905L7.56518 63.3284C2.12176 68.7719 -0.936321 76.1547 -0.936321 83.8529H0ZM28.0896 457.861V456.925C13.0933 456.925 0.936321 444.768 0.936321 429.772H0H-0.936321C-0.936321 445.802 12.059 458.798 28.0896 458.798V457.861ZM517.815 449.634L517.153 448.972C512.061 454.064 505.154 456.925 497.953 456.925V457.861V458.798C505.651 458.798 513.034 455.74 518.477 450.296L517.815 449.634ZM586.137 369.677H585.2C585.2 376.878 582.34 383.784 577.248 388.877L577.91 389.539L578.572 390.201C584.015 384.757 587.073 377.375 587.073 369.677H586.137ZM558.047 41.8789V42.8152C573.043 42.8152 585.2 54.9722 585.2 69.9685H586.137H587.073C587.073 53.9379 574.078 40.9426 558.047 40.9426V41.8789ZM456.722 41.8789V40.9426C447.835 40.9426 439.511 36.5939 434.434 29.2996L433.666 29.8345L432.897 30.3693C438.324 38.1667 447.222 42.8152 456.722 42.8152V41.8789Z" fill="#D9D9D9" mask="url(#path-1-inside-1_2454_9917)"/>
</svg>
